# xmcd
#
# Track frame offsets: 
#        150
#        22721
#        40773
#        58930
#        78083
#        110930
#        126303
#        147007
#        165368
#        186715
#
# Disc length: 2782 seconds
#
# Revision: 0
# Processed by: cddbd v1.5.2PL0 Copyright (c) Steve Scherf et al.
# Submitted via: ExactAudioCopy v1.3
#
DISCID=840adc0a
DTITLE=Juniper Inc. - Boneshaker
DYEAR=2019
DGENRE=Blues Rock
TTITLE0=Boneshaker
TTITLE1=Catch-22
TTITLE2=Ironhead
TTITLE3=Deep Blue Sea
TTITLE4=Mean Old Dog
TTITLE5=Good Girls With Bad Habits
TTITLE6=Midnight Women
TTITLE7=Nowhere Train
TTITLE8=Shadow Blues
TTITLE9=Shotgun
EXTD=
EXTT0=
EXTT1=
EXTT2=
EXTT3=
EXTT4=
EXTT5=
EXTT6=
EXTT7=
EXTT8=
EXTT9=
PLAYORDER=
